<!--?xml version="1.0" standalone="no"?-->
              <svg id="sw-js-blob-svg" viewBox="0 0 100 100" xmlns="http://www.w3.org/2000/svg" version="1.1">
                    <defs> 
                        <linearGradient id="sw-gradient" x1="0" x2="1" y1="1" y2="0">
                            <stop id="stop1" stop-color="rgba(94.804, 139.172, 219.33, 1)" offset="0%"></stop>
                            <stop id="stop2" stop-color="rgba(210.223, 50.508, 50.508, 1)" offset="100%"></stop>
                        </linearGradient>
                    </defs>
                <path fill="url(#sw-gradient)" d="M22.7,-26.9C29.7,-21.3,35.7,-14.3,36.8,-6.6C38,1,34.3,9.4,29.3,15.7C24.2,22.1,17.7,26.5,10.2,30.1C2.7,33.7,-5.8,36.5,-11.5,33.5C-17.2,30.6,-20.1,21.9,-25.9,13.9C-31.7,6,-40.4,-1.3,-40.1,-7.8C-39.8,-14.2,-30.5,-19.7,-22.3,-25.1C-14.1,-30.5,-7,-35.8,0.4,-36.3C7.9,-36.8,15.8,-32.5,22.7,-26.9Z" width="100%" height="100%" transform="translate(50 50)" style="transition: all 0.3s ease 0s;" stroke-width="0" stroke="url(#sw-gradient)"></path>
              </svg>